<?xml version="1.0" encoding="UTF-8"?>
<svg version="1.1" xmlns="http://www.w3.org/2000/svg" width="256" height="256">
<path d="M0 0 C84.48 0 168.96 0 256 0 C256 84.48 256 168.96 256 256 C171.52 256 87.04 256 0 256 C0 171.52 0 87.04 0 0 Z " fill="#060606" transform="translate(0,0)"/>
<path d="M0 0 C6.93 0 13.86 0 21 0 C21 1.65 21 3.3 21 5 C23.97 5 26.94 5 30 5 C30 6.98 30 8.96 30 11 C31.98 11 33.96 11 36 11 C36 12.65 36 14.3 36 16 C36.804375 15.979375 37.60875 15.95875 38.4375 15.9375 C41 16 41 16 42 17 C42.04063832 18.66617115 42.042721 20.33388095 42 22 C43.65 22 45.3 22 47 22 C47 23.98 47 25.96 47 28 C48.98 28 50.96 28 53 28 C53 28.99 53 29.98 53 31 C58.61 31 64.22 31 70 31 C70 29.02 70 27.04 70 25 C71.98 25 73.96 25 76 25 C76 22.36 76 19.72 76 17 C77.98 17 79.96 17 82 17 C82 13.04 82 9.08 82 5 C84.64 5 87.28 5 90 5 C90 12.59 90 20.18 90 28 C88.35 28 86.7 28 85 28 C85 30.64 85 33.28 85 36 C83.35 36 81.7 36 80 36 C80 37.32 80 38.64 80 40 C78.02 40 76.04 40 74 40 C74 41.65 74 43.3 74 45 C64.43 45 54.86 45 45 45 C45 43.35 45 41.7 45 40 C42.69 40 40.38 40 38 40 C38 38.68 38 37.36 38 36 C36.35 36 34.7 36 33 36 C33 34.35 33 32.7 33 31 C31.02 31 29.04 31 27 31 C27 29.02 27 27.04 27 25 C25.35 25 23.7 25 22 25 C22 23.35 22 21.7 22 20 C20.02 20 18.04 20 16 20 C16 18.35 16 16.7 16 15 C11.38 15 6.76 15 2 15 C2 16.32 2 17.64 2 19 C0.35 19 -1.3 19 -3 19 C-3 20.98 -3 22.96 -3 25 C-4.98 25 -6.96 25 -9 25 C-9 29.62 -9 34.24 -9 39 C-12.63 39 -16.26 39 -20 39 C-20 31.74 -20 24.48 -20 17 C-18.35 16.67 -16.7 16.34 -15 16 C-15 14.35 -15 12.7 -15 11 C-13.02 11 -11.04 11 -9 11 C-9 9.02 -9 7.04 -9 5 C-6.03 5 -3.06 5 0 5 C0 3.35 0 1.7 0 0 Z " fill="#F3F1ED" transform="translate(93,76)"/>
<path d="M0 0 C36.3 0 72.6 0 110 0 C110 3.96 110 7.92 110 12 C73.7 12 37.4 12 0 12 C0 8.04 0 4.08 0 0 Z " fill="#EFECE9" transform="translate(73,158)"/>
<path d="M0 0 C36.3 0 72.6 0 110 0 C110 3.96 110 7.92 110 12 C73.7 12 37.4 12 0 12 C0 8.04 0 4.08 0 0 Z " fill="#EDEBE7" transform="translate(73,132)"/>
</svg>
